<svg width="28" height="28" viewBox="0 0 28 28" fill="none" xmlns="http://www.w3.org/2000/svg">
<path d="M10.6675 24.2458V20.6678C10.6675 19.7611 11.4048 19.0245 12.318 19.0188H15.6712C16.5885 19.0188 17.3321 19.7571 17.3321 20.6678V24.2355C17.3321 25.0219 17.9712 25.661 18.7633 25.6667H21.051C22.1194 25.6694 23.145 25.25 23.9015 24.5009C24.658 23.7518 25.0832 22.7346 25.0832 21.6738V11.5102C25.0831 10.6533 24.7006 9.84054 24.0386 9.29079L16.2666 3.12002C14.9081 2.04068 12.9678 2.07555 11.6495 3.20299L4.04468 9.29079C3.35137 9.82433 2.93698 10.6395 2.9165 11.5102V21.6634C2.9165 23.8744 4.72178 25.6667 6.94871 25.6667H9.18418C9.56554 25.6694 9.93224 25.521 10.2029 25.2542C10.4735 24.9874 10.6258 24.6245 10.6257 24.2458H10.6675Z" fill="white"/>
</svg>