<svg width="28" height="28" viewBox="0 0 28 28" fill="none" xmlns="http://www.w3.org/2000/svg">
<path opacity="0.4" d="M19.4547 2.3335H8.55547C4.58362 2.3335 2.33325 4.58387 2.33325 8.55572V19.4446C2.33325 23.4165 4.58362 25.6668 8.55547 25.6668H19.4547C23.4266 25.6668 25.6666 23.4165 25.6666 19.4446V8.55572C25.6666 4.58387 23.4266 2.3335 19.4547 2.3335" fill="white"/>
<path d="M8.59677 10.9307C8.06788 10.9307 7.63232 11.3662 7.63232 11.9055V19.9218C7.63232 20.4507 8.06788 20.8862 8.59677 20.8862C9.13603 20.8862 9.57158 20.4507 9.57158 19.9218V11.9055C9.57158 11.3662 9.13603 10.9307 8.59677 10.9307" fill="white"/>
<path d="M14.0411 7.104C13.5122 7.104 13.0767 7.53956 13.0767 8.07882V19.9218C13.0767 20.4507 13.5122 20.8862 14.0411 20.8862C14.5804 20.8862 15.0159 20.4507 15.0159 19.9218V8.07882C15.0159 7.53956 14.5804 7.104 14.0411 7.104" fill="white"/>
<path d="M19.413 15.1616C18.8738 15.1616 18.4382 15.5972 18.4382 16.1364V19.9216C18.4382 20.4505 18.8738 20.8861 19.4027 20.8861C19.9419 20.8861 20.3775 20.4505 20.3775 19.9216V16.1364C20.3775 15.5972 19.9419 15.1616 19.413 15.1616" fill="white"/>
</svg>
