<svg width="28" height="28" viewBox="0 0 28 28" fill="none" xmlns="http://www.w3.org/2000/svg">
<path opacity="0.4" d="M8.51221 7.52025C8.51221 4.66075 10.9153 2.33325 13.8689 2.33325H19.7399C22.6862 2.33325 25.0833 4.65492 25.0833 7.50859V20.4773C25.0833 23.3379 22.6814 25.6666 19.7279 25.6666H13.8568C10.9105 25.6666 8.51221 23.3438 8.51221 20.4889V19.3923V7.52025Z" fill="white"/>
<path d="M18.7101 13.3626L15.2476 9.96875C14.8897 9.61875 14.3138 9.61875 13.9571 9.97109C13.6016 10.3234 13.6028 10.8916 13.9595 11.2416L15.8555 13.1001H3.82895C3.32533 13.1001 2.9165 13.5026 2.9165 13.9996C2.9165 14.4954 3.32533 14.8968 3.82895 14.8968H15.8555L13.9595 16.7564C13.6028 17.1064 13.6016 17.6746 13.9571 18.0269C14.136 18.2031 14.3695 18.2918 14.6041 18.2918C14.8364 18.2918 15.0698 18.2031 15.2476 18.0293L18.7101 14.6354C18.882 14.4663 18.9791 14.2376 18.9791 13.9996C18.9791 13.7604 18.882 13.5318 18.7101 13.3626Z" fill="white"/>
</svg>
