<svg width="32" height="32" viewBox="0 0 32 32" fill="none" xmlns="http://www.w3.org/2000/svg">
<path opacity="0.4" d="M6.29717 28.223C6.27984 28.223 6.26384 28.223 6.24517 28.2217C5.82517 28.2003 5.41317 28.1097 5.02117 27.951C3.09184 27.167 2.16117 24.963 2.94384 23.035L12.7052 5.93366C13.0412 5.32566 13.5505 4.81633 14.1718 4.47233C15.9918 3.46433 18.2932 4.127 19.2998 5.94566L28.9972 22.9163C29.2132 23.4243 29.3052 23.8377 29.3278 24.259C29.3798 25.267 29.0358 26.2337 28.3612 26.9817C27.6865 27.7297 26.7598 28.171 25.7532 28.2217L6.39317 28.223H6.29717Z" fill="white"/>
<path fill-rule="evenodd" clip-rule="evenodd" d="M14.833 13.361C14.833 12.7183 15.357 12.1943 15.9997 12.1943C16.6423 12.1943 17.1663 12.7183 17.1663 13.361V17.1317C17.1663 17.7757 16.6423 18.2983 15.9997 18.2983C15.357 18.2983 14.833 17.7757 14.833 17.1317V13.361ZM14.833 21.6931C14.833 21.0465 15.357 20.5198 15.9997 20.5198C16.6423 20.5198 17.1663 21.0398 17.1663 21.6785C17.1663 22.3358 16.6423 22.8598 15.9997 22.8598C15.357 22.8598 14.833 22.3358 14.833 21.6931Z" fill="white"/>
</svg>
