<svg width="190" height="35" viewBox="0 0 190 35" fill="none" xmlns="http://www.w3.org/2000/svg">
<g style="mix-blend-mode:overlay">
<path d="M63.06 29L63 17.87L57.6 26.93H54.96L49.59 18.17V29H44.1V8H48.99L56.37 20.12L63.57 8H68.46L68.52 29H63.06ZM83.313 29.42C81.093 29.42 79.093 28.95 77.313 28.01C75.553 27.07 74.163 25.77 73.143 24.11C72.143 22.45 71.643 20.58 71.643 18.5C71.643 16.42 72.143 14.55 73.143 12.89C74.163 11.23 75.553 9.93 77.313 8.99C79.093 8.05 81.093 7.58 83.313 7.58C85.533 7.58 87.523 8.05 89.283 8.99C91.063 9.93 92.453 11.23 93.453 12.89C94.473 14.55 94.983 16.42 94.983 18.5C94.983 20.58 94.473 22.45 93.453 24.11C92.453 25.77 91.063 27.07 89.283 28.01C87.523 28.95 85.533 29.42 83.313 29.42ZM83.313 24.5C84.373 24.5 85.333 24.25 86.193 23.75C87.053 23.25 87.733 22.55 88.233 21.65C88.733 20.73 88.983 19.68 88.983 18.5C88.983 17.32 88.733 16.28 88.233 15.38C87.733 14.46 87.053 13.75 86.193 13.25C85.333 12.75 84.373 12.5 83.313 12.5C82.253 12.5 81.293 12.75 80.433 13.25C79.573 13.75 78.893 14.46 78.393 15.38C77.893 16.28 77.643 17.32 77.643 18.5C77.643 19.68 77.893 20.73 78.393 21.65C78.893 22.55 79.573 23.25 80.433 23.75C81.293 24.25 82.253 24.5 83.313 24.5ZM107.274 23.42H104.034V29H98.0941V8H107.694C109.594 8 111.244 8.32 112.644 8.96C114.044 9.58 115.124 10.48 115.884 11.66C116.644 12.82 117.024 14.19 117.024 15.77C117.024 17.29 116.664 18.62 115.944 19.76C115.244 20.88 114.234 21.76 112.914 22.4L117.444 29H111.084L107.274 23.42ZM111.024 15.77C111.024 14.79 110.714 14.03 110.094 13.49C109.474 12.95 108.554 12.68 107.334 12.68H104.034V18.83H107.334C108.554 18.83 109.474 18.57 110.094 18.05C110.714 17.51 111.024 16.75 111.024 15.77ZM134.371 24.92H125.491L123.841 29H117.781L127.051 8H132.901L142.201 29H136.021L134.371 24.92ZM132.631 20.54L129.931 13.82L127.231 20.54H132.631ZM143.885 8H149.825V24.29H159.845V29H143.885V8ZM162.196 8H168.136V29H162.196V8ZM179.742 29.42C178.042 29.42 176.392 29.21 174.792 28.79C173.192 28.37 171.892 27.81 170.892 27.11L172.842 22.73C173.782 23.35 174.872 23.85 176.112 24.23C177.352 24.61 178.572 24.8 179.772 24.8C182.052 24.8 183.192 24.23 183.192 23.09C183.192 22.49 182.862 22.05 182.202 21.77C181.562 21.47 180.522 21.16 179.082 20.84C177.502 20.5 176.182 20.14 175.122 19.76C174.062 19.36 173.152 18.73 172.392 17.87C171.632 17.01 171.252 15.85 171.252 14.39C171.252 13.11 171.602 11.96 172.302 10.94C173.002 9.9 174.042 9.08 175.422 8.48C176.822 7.88 178.532 7.58 180.552 7.58C181.932 7.58 183.292 7.74 184.632 8.06C185.972 8.36 187.152 8.81 188.172 9.41L186.342 13.82C184.342 12.74 182.402 12.2 180.522 12.2C179.342 12.2 178.482 12.38 177.942 12.74C177.402 13.08 177.132 13.53 177.132 14.09C177.132 14.65 177.452 15.07 178.092 15.35C178.732 15.63 179.762 15.92 181.182 16.22C182.782 16.56 184.102 16.93 185.142 17.33C186.202 17.71 187.112 18.33 187.872 19.19C188.652 20.03 189.042 21.18 189.042 22.64C189.042 23.9 188.692 25.04 187.992 26.06C187.292 27.08 186.242 27.9 184.842 28.52C183.442 29.12 181.742 29.42 179.742 29.42Z" fill="white"/>
</g>
<g clip-path="url(#clip0_60_151)">
<path d="M17.4931 0.44751C26.9503 0.44751 34.6112 8.09732 34.6112 17.5225C34.6112 26.9559 26.9421 34.5976 17.4931 34.5976C8.03591 34.5976 0.375 26.9477 0.375 17.5225C0.375 8.08914 8.04412 0.44751 17.4931 0.44751Z" fill="url(#paint0_radial_60_151)"/>
<path d="M17.4929 34.5975C8.01932 34.5975 0.342021 26.9232 0.358425 17.4735V16.7453C0.366627 11.8609 4.33652 7.90918 9.23326 7.90918H25.7526C30.6494 7.90918 34.6193 11.8691 34.6275 16.7535V17.4817C34.6357 26.9396 26.9666 34.5975 17.4929 34.5975Z" fill="url(#paint1_radial_60_151)"/>
<path d="M0.375058 17.948C0.350452 8.29367 8.19181 0.44751 17.8705 0.44751H18.4939C23.4972 0.44751 22.841 4.48922 22.841 9.48V11.6972C22.841 16.688 18.7892 20.7298 13.7858 20.7298H9.42213C4.42696 20.7216 0.375058 22.9305 0.375058 17.948Z" fill="url(#paint2_radial_60_151)"/>
<path d="M9.47102 20.7215C13.9013 20.7215 17.4928 17.139 17.4928 12.7199C17.4928 8.3007 13.9013 4.71826 9.47102 4.71826C5.04071 4.71826 1.44922 8.3007 1.44922 12.7199C1.44922 17.139 5.04071 20.7215 9.47102 20.7215Z" fill="url(#paint3_radial_60_151)" fill-opacity="0.56"/>
<path d="M23.0705 15.387C26.74 15.387 29.7144 12.42 29.7144 8.75992C29.7144 5.09986 26.74 2.13281 23.0705 2.13281C19.4013 2.13281 16.4268 5.09986 16.4268 8.75992C16.4268 12.42 19.4013 15.387 23.0705 15.387Z" fill="url(#paint4_radial_60_151)" fill-opacity="0.56"/>
<path d="M17.493 18.4797C17.493 23.4868 11.5054 27.5531 4.11514 27.5531C3.58199 27.5531 0.366699 23.495 0.366699 18.4797C0.366699 13.4725 1.433 9.40625 4.11514 9.40625C11.5054 9.40625 17.493 13.4643 17.493 18.4797Z" fill="url(#paint5_radial_60_151)" fill-opacity="0.96"/>
<path d="M28.1969 29.9665C28.1969 31.472 23.9891 34.5973 16.7465 34.5973C11.8333 34.5973 5.72266 30.8421 5.72266 29.3367C5.72266 18.2832 11.8251 17.5142 16.7465 17.5142C21.6679 17.5223 28.1969 21.425 28.1969 29.9665Z" fill="url(#paint6_radial_60_151)" fill-opacity="0.46"/>
<path d="M0.375 17.5225C0.375 8.08914 8.04412 0.44751 17.4931 0.44751C26.9503 0.44751 34.6112 8.09731 34.6112 17.5225V19.658H0.375V17.5225Z" fill="url(#paint7_linear_60_151)" fill-opacity="0.8"/>
<path d="M19.5929 18.0952C19.5929 22.4887 16.0168 26.0559 11.6122 26.0559C7.20753 26.0559 3.63135 22.4887 3.63135 18.0952C3.63135 13.7017 7.20753 10.1345 11.6122 10.1345C16.0168 10.1345 19.5929 13.7017 19.5929 18.0952Z" fill="url(#paint8_radial_60_151)" fill-opacity="0.8"/>
<path d="M19.6336 23.3886C19.6336 27.2176 16.5168 30.3266 12.6782 30.3266C8.83952 30.3266 5.72266 27.2176 5.72266 23.3886C5.72266 19.5597 8.83952 16.4507 12.6782 16.4507C16.525 16.4507 19.6336 19.5597 19.6336 23.3886Z" fill="url(#paint9_radial_60_151)" fill-opacity="0.5"/>
<path d="M17.4112 12.188C23.0238 12.188 27.5737 9.55794 27.5737 6.31361C27.5737 3.06926 23.0238 0.439209 17.4112 0.439209C11.7985 0.439209 7.24854 3.06926 7.24854 6.31361C7.24854 9.55794 11.7985 12.188 17.4112 12.188Z" fill="url(#paint10_radial_60_151)" fill-opacity="0.75"/>
<path d="M17.4931 0.44751C26.9503 0.44751 34.6112 8.09732 34.6112 17.5225C34.6112 26.9559 26.9421 34.5976 17.4931 34.5976C8.03591 34.5976 0.375 26.9477 0.375 17.5225C0.375 8.08914 8.04412 0.44751 17.4931 0.44751Z" stroke="url(#paint11_linear_60_151)" stroke-width="3"/>
<path d="M28.8857 15.6652C28.7954 12.0489 25.7852 9.13623 22.0778 9.13623C20.2569 9.13623 18.6082 9.83986 17.3861 10.9853C16.1721 9.83986 14.5317 9.13623 12.719 9.13623C9.01158 9.13623 6.00135 12.0734 5.91113 15.7388V15.7633V15.7879C5.91113 18.5778 6.9446 21.0569 7.88787 22.7587C8.36359 23.6258 8.84752 24.3296 9.20843 24.8205C9.38889 25.0659 9.54473 25.2623 9.65956 25.4013C9.71697 25.4749 9.7662 25.524 9.799 25.565C9.8154 25.5814 9.8318 25.5976 9.84001 25.6139C9.84821 25.6221 9.84821 25.6221 9.85642 25.6303L9.86461 25.6385L9.87282 25.6467C10.6602 26.5467 12.0382 26.6368 12.9487 25.8513C13.8509 25.0659 13.9411 23.6996 13.1619 22.7996C13.1619 22.7996 13.1619 22.7996 13.1619 22.7914C13.1619 22.7832 13.1537 22.7832 13.1455 22.775C13.1291 22.7586 13.1045 22.7259 13.0635 22.6767C12.9897 22.5868 12.8748 22.4477 12.7436 22.2513C12.4647 21.8751 12.0956 21.3268 11.7265 20.6479C10.9637 19.2814 10.2993 17.5551 10.2911 15.7961C10.3403 14.487 11.423 13.4398 12.7436 13.4398C14.0806 13.4398 15.1633 14.4952 15.1961 15.8206C15.2043 16.1561 15.2945 16.4751 15.4339 16.7533C15.7456 17.5633 16.5413 18.1442 17.4681 18.1442C18.6657 18.1442 19.6417 17.1869 19.6417 16.0006V15.7143C19.6909 14.4216 20.7737 13.3907 22.0942 13.3907C23.4147 13.3907 24.4974 14.4297 24.5466 15.7143C24.5384 17.1215 24.0791 18.5124 23.5623 19.6086C23.3082 20.1487 23.0539 20.5823 22.8735 20.885C22.7832 21.0323 22.7011 21.1468 22.6601 21.2205C22.6356 21.2533 22.6192 21.2777 22.611 21.294C22.6028 21.3022 22.6028 21.3022 22.6028 21.3022C22.5946 21.3104 22.5864 21.335 22.5864 21.335C22.9882 20.8441 23.5953 20.5332 24.2925 20.5332C25.4899 20.5332 26.466 21.4905 26.466 22.6685C26.466 23.0941 26.3348 23.4868 26.1132 23.8304C26.1214 23.8386 26.1216 23.8386 26.1216 23.8386V23.8304L26.1298 23.8222C26.138 23.814 26.138 23.814 26.138 23.8059C26.1462 23.7977 26.1625 23.7813 26.1707 23.7567C26.1953 23.7241 26.2281 23.675 26.2692 23.6176C26.3511 23.5031 26.4578 23.3395 26.5891 23.1269C26.8434 22.7177 27.1878 22.1287 27.524 21.4087C28.1885 20.0015 28.9102 17.9642 28.9102 15.6897V15.6652H28.8857Z" fill="white"/>
<path d="M24.336 20.4788C23.6472 20.4788 23.0319 20.7979 22.63 21.2806C22.3347 21.6405 22.1543 22.1068 22.1543 22.6059C22.1543 23.7842 23.1304 24.7413 24.3278 24.7413C25.0332 24.7413 25.6567 24.406 26.0587 23.8987C26.0914 23.8496 26.1242 23.8086 26.1569 23.7596C26.3785 23.4242 26.5097 23.0313 26.5097 22.5978C26.5097 21.436 25.5418 20.4788 24.336 20.4788Z" fill="#B7E803"/>
</g>
<defs>
<radialGradient id="paint0_radial_60_151" cx="0" cy="0" r="1" gradientUnits="userSpaceOnUse" gradientTransform="translate(29.2674 4.71419) rotate(90) scale(24.5488 24.6108)">
<stop offset="0.1531" stop-color="#02FB06"/>
<stop offset="0.3626" stop-color="#07F018"/>
<stop offset="0.869" stop-color="#1BC35C"/>
<stop offset="1" stop-color="#22B573"/>
</radialGradient>
<radialGradient id="paint1_radial_60_151" cx="0" cy="0" r="1" gradientUnits="userSpaceOnUse" gradientTransform="translate(3.44386 32.0859) rotate(-40.7389) scale(23.9791 26.2105)">
<stop offset="0.2448" stop-color="#662D91"/>
<stop offset="1" stop-color="#2E3192" stop-opacity="0"/>
</radialGradient>
<radialGradient id="paint2_radial_60_151" cx="0" cy="0" r="1" gradientUnits="userSpaceOnUse" gradientTransform="translate(11.4451 4.89468) scale(10.249 37.8097)">
<stop stop-color="#FCBE32"/>
<stop offset="1" stop-color="#23B674" stop-opacity="0"/>
</radialGradient>
<radialGradient id="paint3_radial_60_151" cx="0" cy="0" r="1" gradientUnits="userSpaceOnUse" gradientTransform="translate(9.4685 12.449) rotate(90) scale(7.73276 7.75227)">
<stop offset="0.3646" stop-color="#F91616"/>
<stop offset="1" stop-color="#2E3192" stop-opacity="0"/>
</radialGradient>
<radialGradient id="paint4_radial_60_151" cx="0" cy="0" r="1" gradientUnits="userSpaceOnUse" gradientTransform="translate(23.0664 8.53897) rotate(90) scale(6.39891 6.41505)">
<stop offset="0.1354" stop-color="#F4F916"/>
<stop offset="0.9375" stop-color="#ADFF00" stop-opacity="0"/>
</radialGradient>
<radialGradient id="paint5_radial_60_151" cx="0" cy="0" r="1" gradientUnits="userSpaceOnUse" gradientTransform="translate(4.12157 18.1718) rotate(90) scale(8.76382 12.9205)">
<stop stop-color="#9D55DB"/>
<stop offset="1" stop-color="#C111FF" stop-opacity="0"/>
</radialGradient>
<radialGradient id="paint6_radial_60_151" cx="0" cy="0" r="1" gradientUnits="userSpaceOnUse" gradientTransform="translate(16.756 33.5949) rotate(90) scale(12.0547 10.1754)">
<stop stop-color="#3CA1EA"/>
<stop offset="0.776" stop-color="#11FFB8" stop-opacity="0"/>
</radialGradient>
<linearGradient id="paint7_linear_60_151" x1="17.4971" y1="7.30617" x2="17.4971" y2="20.3431" gradientUnits="userSpaceOnUse">
<stop stop-color="#FBF102"/>
<stop offset="1" stop-color="#BDE022" stop-opacity="0"/>
</linearGradient>
<radialGradient id="paint8_radial_60_151" cx="0" cy="0" r="1" gradientUnits="userSpaceOnUse" gradientTransform="translate(10.9737 15.2323) rotate(135.072) scale(7.2157)">
<stop stop-color="#DA25E9"/>
<stop offset="0.8021" stop-color="#DA25E9" stop-opacity="0"/>
</radialGradient>
<radialGradient id="paint9_radial_60_151" cx="0" cy="0" r="1" gradientUnits="userSpaceOnUse" gradientTransform="translate(12.1256 20.8949) rotate(135.072) scale(6.28723)">
<stop offset="0.1042" stop-color="#DA25E9"/>
<stop offset="1" stop-color="#DA25E9" stop-opacity="0"/>
</radialGradient>
<radialGradient id="paint10_radial_60_151" cx="0" cy="0" r="1" gradientUnits="userSpaceOnUse" gradientTransform="translate(15.27 2.57466) rotate(84.7925) scale(5.89471 10.207)">
<stop offset="0.0459339" stop-color="#FBFF33"/>
<stop offset="1" stop-color="#F1C116" stop-opacity="0"/>
</radialGradient>
<linearGradient id="paint11_linear_60_151" x1="7.4822" y1="2.51338" x2="24.4236" y2="32.2075" gradientUnits="userSpaceOnUse">
<stop stop-color="white"/>
<stop offset="1" stop-color="white" stop-opacity="0"/>
</linearGradient>
<clipPath id="clip0_60_151">
<rect width="35" height="35" fill="white"/>
</clipPath>
</defs>
</svg>
